<mxfile host="app.diagrams.net" modified="2022-08-13T12:04:52.374Z" agent="5.0 (Macintosh; Intel Mac OS X 10_15_7) AppleWebKit/537.36 (KHTML, like Gecko) Chrome/104.0.0.0 Safari/537.36" etag="9dHXoX-ypz5BklJ_z0WK" version="20.2.3" type="github">
  <diagram id="cza2FtzeK0P-6kGZd35n" name="第 1 页">
    <mxGraphModel dx="1298" dy="777" grid="1" gridSize="10" guides="1" tooltips="1" connect="1" arrows="1" fold="1" page="1" pageScale="1" pageWidth="827" pageHeight="1169" math="0" shadow="0">
      <root>
        <mxCell id="0" />
        <mxCell id="1" parent="0" />
        <mxCell id="cgWmIFjswiyeb0cbT2T6-8" value="" style="edgeStyle=orthogonalEdgeStyle;rounded=0;orthogonalLoop=1;jettySize=auto;html=1;" parent="1" source="cgWmIFjswiyeb0cbT2T6-2" target="cgWmIFjswiyeb0cbT2T6-7" edge="1">
          <mxGeometry relative="1" as="geometry" />
        </mxCell>
        <mxCell id="cgWmIFjswiyeb0cbT2T6-9" value="Yes" style="edgeLabel;html=1;align=center;verticalAlign=middle;resizable=0;points=[];" parent="cgWmIFjswiyeb0cbT2T6-8" vertex="1" connectable="0">
          <mxGeometry x="-0.1303" y="2" relative="1" as="geometry">
            <mxPoint as="offset" />
          </mxGeometry>
        </mxCell>
        <mxCell id="jErv5ShqHcsnj3IB_JtX-37" value="" style="edgeStyle=orthogonalEdgeStyle;rounded=0;orthogonalLoop=1;jettySize=auto;html=1;" parent="1" source="cgWmIFjswiyeb0cbT2T6-2" target="jErv5ShqHcsnj3IB_JtX-36" edge="1">
          <mxGeometry relative="1" as="geometry" />
        </mxCell>
        <mxCell id="jErv5ShqHcsnj3IB_JtX-38" value="N o" style="edgeLabel;html=1;align=center;verticalAlign=middle;resizable=0;points=[];" parent="jErv5ShqHcsnj3IB_JtX-37" vertex="1" connectable="0">
          <mxGeometry x="-0.2333" y="3" relative="1" as="geometry">
            <mxPoint as="offset" />
          </mxGeometry>
        </mxCell>
        <mxCell id="cgWmIFjswiyeb0cbT2T6-2" value="判断任务集合是否为 null" style="rounded=1;whiteSpace=wrap;html=1;fillColor=#d5e8d4;strokeColor=#82b366;" parent="1" vertex="1">
          <mxGeometry x="20" y="140" width="120" height="40" as="geometry" />
        </mxCell>
        <mxCell id="cgWmIFjswiyeb0cbT2T6-6" style="edgeStyle=orthogonalEdgeStyle;rounded=0;orthogonalLoop=1;jettySize=auto;html=1;exitX=0.5;exitY=1;exitDx=0;exitDy=0;entryX=0.5;entryY=0;entryDx=0;entryDy=0;" parent="1" source="cgWmIFjswiyeb0cbT2T6-4" target="cgWmIFjswiyeb0cbT2T6-2" edge="1">
          <mxGeometry relative="1" as="geometry" />
        </mxCell>
        <mxCell id="cgWmIFjswiyeb0cbT2T6-4" value="start&lt;br&gt;invokeAll 没有设置超时时间" style="ellipse;whiteSpace=wrap;html=1;fillColor=#fff2cc;strokeColor=#d6b656;" parent="1" vertex="1">
          <mxGeometry x="20" y="60" width="120" height="40" as="geometry" />
        </mxCell>
        <mxCell id="cgWmIFjswiyeb0cbT2T6-7" value="抛出异常NullPointerException" style="whiteSpace=wrap;html=1;fillColor=#d5e8d4;strokeColor=#82b366;rounded=1;" parent="1" vertex="1">
          <mxGeometry x="220" y="130" width="120" height="60" as="geometry" />
        </mxCell>
        <mxCell id="cgWmIFjswiyeb0cbT2T6-14" value="" style="edgeStyle=orthogonalEdgeStyle;rounded=0;orthogonalLoop=1;jettySize=auto;html=1;" parent="1" source="cgWmIFjswiyeb0cbT2T6-10" target="cgWmIFjswiyeb0cbT2T6-13" edge="1">
          <mxGeometry relative="1" as="geometry" />
        </mxCell>
        <mxCell id="cgWmIFjswiyeb0cbT2T6-10" value="FutureTask 封装 Runnable 转换为RunnableFuture" style="whiteSpace=wrap;html=1;fillColor=#d5e8d4;strokeColor=#82b366;rounded=1;" parent="1" vertex="1">
          <mxGeometry x="20" y="340" width="120" height="60" as="geometry" />
        </mxCell>
        <mxCell id="cgWmIFjswiyeb0cbT2T6-16" value="" style="edgeStyle=orthogonalEdgeStyle;rounded=0;orthogonalLoop=1;jettySize=auto;html=1;" parent="1" source="cgWmIFjswiyeb0cbT2T6-13" target="cgWmIFjswiyeb0cbT2T6-15" edge="1">
          <mxGeometry relative="1" as="geometry" />
        </mxCell>
        <mxCell id="cgWmIFjswiyeb0cbT2T6-13" value="将 RunnableFuture 放入 Future 集合中" style="whiteSpace=wrap;html=1;fillColor=#d5e8d4;strokeColor=#82b366;rounded=1;" parent="1" vertex="1">
          <mxGeometry x="20" y="430" width="120" height="60" as="geometry" />
        </mxCell>
        <mxCell id="cgWmIFjswiyeb0cbT2T6-18" value="" style="edgeStyle=orthogonalEdgeStyle;rounded=0;orthogonalLoop=1;jettySize=auto;html=1;" parent="1" source="cgWmIFjswiyeb0cbT2T6-15" target="cgWmIFjswiyeb0cbT2T6-17" edge="1">
          <mxGeometry relative="1" as="geometry" />
        </mxCell>
        <mxCell id="cgWmIFjswiyeb0cbT2T6-15" value="放入线程池开始执行" style="whiteSpace=wrap;html=1;fillColor=#d5e8d4;strokeColor=#82b366;rounded=1;" parent="1" vertex="1">
          <mxGeometry x="20" y="520" width="120" height="60" as="geometry" />
        </mxCell>
        <mxCell id="cgWmIFjswiyeb0cbT2T6-20" value="" style="edgeStyle=orthogonalEdgeStyle;rounded=0;orthogonalLoop=1;jettySize=auto;html=1;" parent="1" source="cgWmIFjswiyeb0cbT2T6-17" target="cgWmIFjswiyeb0cbT2T6-19" edge="1">
          <mxGeometry relative="1" as="geometry" />
        </mxCell>
        <mxCell id="cgWmIFjswiyeb0cbT2T6-17" value="遍历 Future 集合获取执行任务返回的结果" style="whiteSpace=wrap;html=1;fillColor=#d5e8d4;strokeColor=#82b366;rounded=1;" parent="1" vertex="1">
          <mxGeometry x="20" y="620" width="120" height="60" as="geometry" />
        </mxCell>
        <mxCell id="cgWmIFjswiyeb0cbT2T6-22" value="" style="edgeStyle=orthogonalEdgeStyle;rounded=0;orthogonalLoop=1;jettySize=auto;html=1;" parent="1" source="cgWmIFjswiyeb0cbT2T6-19" target="cgWmIFjswiyeb0cbT2T6-21" edge="1">
          <mxGeometry relative="1" as="geometry" />
        </mxCell>
        <mxCell id="cgWmIFjswiyeb0cbT2T6-23" value="是否执行异常Yes" style="edgeLabel;html=1;align=center;verticalAlign=middle;resizable=0;points=[];" parent="cgWmIFjswiyeb0cbT2T6-22" vertex="1" connectable="0">
          <mxGeometry x="-0.2355" y="-2" relative="1" as="geometry">
            <mxPoint as="offset" />
          </mxGeometry>
        </mxCell>
        <mxCell id="cgWmIFjswiyeb0cbT2T6-27" value="" style="edgeStyle=orthogonalEdgeStyle;rounded=0;orthogonalLoop=1;jettySize=auto;html=1;" parent="1" source="cgWmIFjswiyeb0cbT2T6-19" target="cgWmIFjswiyeb0cbT2T6-26" edge="1">
          <mxGeometry relative="1" as="geometry" />
        </mxCell>
        <mxCell id="cgWmIFjswiyeb0cbT2T6-19" value="f.get();阻塞获取任务执行结果" style="whiteSpace=wrap;html=1;fillColor=#d5e8d4;strokeColor=#82b366;rounded=1;" parent="1" vertex="1">
          <mxGeometry x="20" y="720" width="120" height="60" as="geometry" />
        </mxCell>
        <mxCell id="cgWmIFjswiyeb0cbT2T6-21" value="catch 忽略异常&lt;br&gt;CancellationException&lt;br&gt;ExecutionException" style="whiteSpace=wrap;html=1;fillColor=#d5e8d4;strokeColor=#82b366;rounded=1;" parent="1" vertex="1">
          <mxGeometry x="285" y="720" width="120" height="60" as="geometry" />
        </mxCell>
        <mxCell id="cgWmIFjswiyeb0cbT2T6-29" value="" style="edgeStyle=orthogonalEdgeStyle;rounded=0;orthogonalLoop=1;jettySize=auto;html=1;" parent="1" source="cgWmIFjswiyeb0cbT2T6-26" target="cgWmIFjswiyeb0cbT2T6-28" edge="1">
          <mxGeometry relative="1" as="geometry" />
        </mxCell>
        <mxCell id="cgWmIFjswiyeb0cbT2T6-30" value="Yes" style="edgeLabel;html=1;align=center;verticalAlign=middle;resizable=0;points=[];" parent="cgWmIFjswiyeb0cbT2T6-29" vertex="1" connectable="0">
          <mxGeometry x="-0.2614" y="-2" relative="1" as="geometry">
            <mxPoint as="offset" />
          </mxGeometry>
        </mxCell>
        <mxCell id="cgWmIFjswiyeb0cbT2T6-32" value="" style="edgeStyle=orthogonalEdgeStyle;rounded=0;orthogonalLoop=1;jettySize=auto;html=1;" parent="1" source="cgWmIFjswiyeb0cbT2T6-26" target="cgWmIFjswiyeb0cbT2T6-31" edge="1">
          <mxGeometry relative="1" as="geometry" />
        </mxCell>
        <mxCell id="cgWmIFjswiyeb0cbT2T6-33" value="N o" style="edgeLabel;html=1;align=center;verticalAlign=middle;resizable=0;points=[];" parent="cgWmIFjswiyeb0cbT2T6-32" vertex="1" connectable="0">
          <mxGeometry x="-0.2263" y="-2" relative="1" as="geometry">
            <mxPoint as="offset" />
          </mxGeometry>
        </mxCell>
        <mxCell id="cgWmIFjswiyeb0cbT2T6-26" value="判断任务是否执行完成" style="rhombus;whiteSpace=wrap;html=1;fillColor=#d5e8d4;strokeColor=#82b366;rounded=1;" parent="1" vertex="1">
          <mxGeometry x="40" y="820" width="80" height="80" as="geometry" />
        </mxCell>
        <mxCell id="cgWmIFjswiyeb0cbT2T6-28" value="返回 Future 集合" style="whiteSpace=wrap;html=1;fillColor=#d5e8d4;strokeColor=#82b366;rounded=1;" parent="1" vertex="1">
          <mxGeometry x="20" y="940" width="120" height="60" as="geometry" />
        </mxCell>
        <mxCell id="cgWmIFjswiyeb0cbT2T6-31" value="Future 调用取消任务方法" style="whiteSpace=wrap;html=1;fillColor=#d5e8d4;strokeColor=#82b366;rounded=1;" parent="1" vertex="1">
          <mxGeometry x="180" y="830" width="120" height="60" as="geometry" />
        </mxCell>
        <mxCell id="jErv5ShqHcsnj3IB_JtX-1" value="" style="edgeStyle=orthogonalEdgeStyle;rounded=0;orthogonalLoop=1;jettySize=auto;html=1;" parent="1" source="jErv5ShqHcsnj3IB_JtX-5" target="jErv5ShqHcsnj3IB_JtX-8" edge="1">
          <mxGeometry relative="1" as="geometry" />
        </mxCell>
        <mxCell id="jErv5ShqHcsnj3IB_JtX-2" value="Yes" style="edgeLabel;html=1;align=center;verticalAlign=middle;resizable=0;points=[];" parent="jErv5ShqHcsnj3IB_JtX-1" vertex="1" connectable="0">
          <mxGeometry x="-0.1303" y="2" relative="1" as="geometry">
            <mxPoint as="offset" />
          </mxGeometry>
        </mxCell>
        <mxCell id="jErv5ShqHcsnj3IB_JtX-41" value="" style="edgeStyle=orthogonalEdgeStyle;rounded=0;orthogonalLoop=1;jettySize=auto;html=1;" parent="1" source="jErv5ShqHcsnj3IB_JtX-5" target="jErv5ShqHcsnj3IB_JtX-40" edge="1">
          <mxGeometry relative="1" as="geometry" />
        </mxCell>
        <mxCell id="jErv5ShqHcsnj3IB_JtX-42" value="N o" style="edgeLabel;html=1;align=center;verticalAlign=middle;resizable=0;points=[];" parent="jErv5ShqHcsnj3IB_JtX-41" vertex="1" connectable="0">
          <mxGeometry x="-0.3" relative="1" as="geometry">
            <mxPoint as="offset" />
          </mxGeometry>
        </mxCell>
        <mxCell id="jErv5ShqHcsnj3IB_JtX-5" value="判断任务集合是否为 null" style="rounded=1;whiteSpace=wrap;html=1;fillColor=#d5e8d4;strokeColor=#82b366;" parent="1" vertex="1">
          <mxGeometry x="620" y="120" width="120" height="40" as="geometry" />
        </mxCell>
        <mxCell id="jErv5ShqHcsnj3IB_JtX-6" style="edgeStyle=orthogonalEdgeStyle;rounded=0;orthogonalLoop=1;jettySize=auto;html=1;exitX=0.5;exitY=1;exitDx=0;exitDy=0;entryX=0.5;entryY=0;entryDx=0;entryDy=0;" parent="1" source="jErv5ShqHcsnj3IB_JtX-7" target="jErv5ShqHcsnj3IB_JtX-5" edge="1">
          <mxGeometry relative="1" as="geometry" />
        </mxCell>
        <mxCell id="jErv5ShqHcsnj3IB_JtX-7" value="start&lt;br&gt;invokeAll 没有设置超时时间" style="ellipse;whiteSpace=wrap;html=1;fillColor=#fff2cc;strokeColor=#d6b656;" parent="1" vertex="1">
          <mxGeometry x="620" y="40" width="120" height="40" as="geometry" />
        </mxCell>
        <mxCell id="jErv5ShqHcsnj3IB_JtX-8" value="抛出异常NullPointerException" style="whiteSpace=wrap;html=1;fillColor=#d5e8d4;strokeColor=#82b366;rounded=1;" parent="1" vertex="1">
          <mxGeometry x="820" y="110" width="120" height="60" as="geometry" />
        </mxCell>
        <mxCell id="jErv5ShqHcsnj3IB_JtX-45" value="" style="edgeStyle=orthogonalEdgeStyle;rounded=0;orthogonalLoop=1;jettySize=auto;html=1;" parent="1" source="jErv5ShqHcsnj3IB_JtX-10" target="jErv5ShqHcsnj3IB_JtX-44" edge="1">
          <mxGeometry relative="1" as="geometry" />
        </mxCell>
        <mxCell id="jErv5ShqHcsnj3IB_JtX-10" value="FutureTask 封装 Runnable 转换为RunnableFuture" style="whiteSpace=wrap;html=1;fillColor=#d5e8d4;strokeColor=#82b366;rounded=1;" parent="1" vertex="1">
          <mxGeometry x="620" y="290" width="120" height="60" as="geometry" />
        </mxCell>
        <mxCell id="jErv5ShqHcsnj3IB_JtX-11" value="" style="edgeStyle=orthogonalEdgeStyle;rounded=0;orthogonalLoop=1;jettySize=auto;html=1;" parent="1" source="jErv5ShqHcsnj3IB_JtX-12" target="jErv5ShqHcsnj3IB_JtX-14" edge="1">
          <mxGeometry relative="1" as="geometry" />
        </mxCell>
        <mxCell id="jErv5ShqHcsnj3IB_JtX-12" value="将 RunnableFuture 放入 Future 集合中" style="whiteSpace=wrap;html=1;fillColor=#d5e8d4;strokeColor=#82b366;rounded=1;" parent="1" vertex="1">
          <mxGeometry x="620" y="480" width="120" height="60" as="geometry" />
        </mxCell>
        <mxCell id="jErv5ShqHcsnj3IB_JtX-48" value="" style="edgeStyle=orthogonalEdgeStyle;rounded=0;orthogonalLoop=1;jettySize=auto;html=1;" parent="1" source="jErv5ShqHcsnj3IB_JtX-14" target="jErv5ShqHcsnj3IB_JtX-47" edge="1">
          <mxGeometry relative="1" as="geometry" />
        </mxCell>
        <mxCell id="jErv5ShqHcsnj3IB_JtX-14" value="放入线程池开始执行" style="whiteSpace=wrap;html=1;fillColor=#d5e8d4;strokeColor=#82b366;rounded=1;" parent="1" vertex="1">
          <mxGeometry x="620" y="570" width="120" height="60" as="geometry" />
        </mxCell>
        <mxCell id="jErv5ShqHcsnj3IB_JtX-57" style="edgeStyle=orthogonalEdgeStyle;rounded=0;orthogonalLoop=1;jettySize=auto;html=1;entryX=0.5;entryY=0;entryDx=0;entryDy=0;" parent="1" source="jErv5ShqHcsnj3IB_JtX-16" target="jErv5ShqHcsnj3IB_JtX-56" edge="1">
          <mxGeometry relative="1" as="geometry" />
        </mxCell>
        <mxCell id="jErv5ShqHcsnj3IB_JtX-16" value="遍历 Future 集合获取执行任务返回的结果" style="whiteSpace=wrap;html=1;fillColor=#d5e8d4;strokeColor=#82b366;rounded=1;" parent="1" vertex="1">
          <mxGeometry x="620" y="870" width="120" height="60" as="geometry" />
        </mxCell>
        <mxCell id="jErv5ShqHcsnj3IB_JtX-17" value="" style="edgeStyle=orthogonalEdgeStyle;rounded=0;orthogonalLoop=1;jettySize=auto;html=1;" parent="1" source="jErv5ShqHcsnj3IB_JtX-20" target="jErv5ShqHcsnj3IB_JtX-21" edge="1">
          <mxGeometry relative="1" as="geometry" />
        </mxCell>
        <mxCell id="jErv5ShqHcsnj3IB_JtX-18" value="是否执行异常Yes" style="edgeLabel;html=1;align=center;verticalAlign=middle;resizable=0;points=[];" parent="jErv5ShqHcsnj3IB_JtX-17" vertex="1" connectable="0">
          <mxGeometry x="-0.2355" y="-2" relative="1" as="geometry">
            <mxPoint as="offset" />
          </mxGeometry>
        </mxCell>
        <mxCell id="jErv5ShqHcsnj3IB_JtX-19" value="" style="edgeStyle=orthogonalEdgeStyle;rounded=0;orthogonalLoop=1;jettySize=auto;html=1;" parent="1" source="jErv5ShqHcsnj3IB_JtX-20" target="jErv5ShqHcsnj3IB_JtX-26" edge="1">
          <mxGeometry relative="1" as="geometry" />
        </mxCell>
        <mxCell id="jErv5ShqHcsnj3IB_JtX-20" value="f.get();阻塞获取任务执行结果" style="whiteSpace=wrap;html=1;fillColor=#d5e8d4;strokeColor=#82b366;rounded=1;" parent="1" vertex="1">
          <mxGeometry x="620" y="1060" width="120" height="60" as="geometry" />
        </mxCell>
        <mxCell id="jErv5ShqHcsnj3IB_JtX-21" value="catch 忽略异常&lt;br&gt;CancellationException&lt;br&gt;ExecutionException" style="whiteSpace=wrap;html=1;fillColor=#d5e8d4;strokeColor=#82b366;rounded=1;" parent="1" vertex="1">
          <mxGeometry x="885" y="1060" width="120" height="60" as="geometry" />
        </mxCell>
        <mxCell id="jErv5ShqHcsnj3IB_JtX-22" value="" style="edgeStyle=orthogonalEdgeStyle;rounded=0;orthogonalLoop=1;jettySize=auto;html=1;" parent="1" source="jErv5ShqHcsnj3IB_JtX-26" target="jErv5ShqHcsnj3IB_JtX-27" edge="1">
          <mxGeometry relative="1" as="geometry" />
        </mxCell>
        <mxCell id="jErv5ShqHcsnj3IB_JtX-23" value="Yes" style="edgeLabel;html=1;align=center;verticalAlign=middle;resizable=0;points=[];" parent="jErv5ShqHcsnj3IB_JtX-22" vertex="1" connectable="0">
          <mxGeometry x="-0.2614" y="-2" relative="1" as="geometry">
            <mxPoint as="offset" />
          </mxGeometry>
        </mxCell>
        <mxCell id="jErv5ShqHcsnj3IB_JtX-24" value="" style="edgeStyle=orthogonalEdgeStyle;rounded=0;orthogonalLoop=1;jettySize=auto;html=1;" parent="1" source="jErv5ShqHcsnj3IB_JtX-26" target="jErv5ShqHcsnj3IB_JtX-28" edge="1">
          <mxGeometry relative="1" as="geometry" />
        </mxCell>
        <mxCell id="jErv5ShqHcsnj3IB_JtX-25" value="N o" style="edgeLabel;html=1;align=center;verticalAlign=middle;resizable=0;points=[];" parent="jErv5ShqHcsnj3IB_JtX-24" vertex="1" connectable="0">
          <mxGeometry x="-0.2263" y="-2" relative="1" as="geometry">
            <mxPoint as="offset" />
          </mxGeometry>
        </mxCell>
        <mxCell id="jErv5ShqHcsnj3IB_JtX-26" value="判断任务是否执行完成" style="rhombus;whiteSpace=wrap;html=1;fillColor=#d5e8d4;strokeColor=#82b366;rounded=1;" parent="1" vertex="1">
          <mxGeometry x="640" y="1160" width="80" height="80" as="geometry" />
        </mxCell>
        <mxCell id="jErv5ShqHcsnj3IB_JtX-27" value="返回 Future 集合" style="whiteSpace=wrap;html=1;fillColor=#d5e8d4;strokeColor=#82b366;rounded=1;" parent="1" vertex="1">
          <mxGeometry x="620" y="1280" width="120" height="60" as="geometry" />
        </mxCell>
        <mxCell id="jErv5ShqHcsnj3IB_JtX-28" value="遍历 Future 集合， Future 调用取消任务方法" style="whiteSpace=wrap;html=1;fillColor=#d5e8d4;strokeColor=#82b366;rounded=1;" parent="1" vertex="1">
          <mxGeometry x="1181" y="1170" width="120" height="60" as="geometry" />
        </mxCell>
        <mxCell id="jErv5ShqHcsnj3IB_JtX-39" style="edgeStyle=orthogonalEdgeStyle;rounded=0;orthogonalLoop=1;jettySize=auto;html=1;entryX=0.5;entryY=0;entryDx=0;entryDy=0;" parent="1" source="jErv5ShqHcsnj3IB_JtX-36" target="cgWmIFjswiyeb0cbT2T6-10" edge="1">
          <mxGeometry relative="1" as="geometry" />
        </mxCell>
        <mxCell id="jErv5ShqHcsnj3IB_JtX-36" value="遍历任务集合" style="whiteSpace=wrap;html=1;fillColor=#d5e8d4;strokeColor=#82b366;rounded=1;" parent="1" vertex="1">
          <mxGeometry x="20" y="240" width="120" height="60" as="geometry" />
        </mxCell>
        <mxCell id="jErv5ShqHcsnj3IB_JtX-43" style="edgeStyle=orthogonalEdgeStyle;rounded=0;orthogonalLoop=1;jettySize=auto;html=1;entryX=0.5;entryY=0;entryDx=0;entryDy=0;" parent="1" source="jErv5ShqHcsnj3IB_JtX-40" target="jErv5ShqHcsnj3IB_JtX-10" edge="1">
          <mxGeometry relative="1" as="geometry" />
        </mxCell>
        <mxCell id="jErv5ShqHcsnj3IB_JtX-40" value="遍历任务集合" style="whiteSpace=wrap;html=1;fillColor=#d5e8d4;strokeColor=#82b366;rounded=1;" parent="1" vertex="1">
          <mxGeometry x="620" y="210" width="120" height="40" as="geometry" />
        </mxCell>
        <mxCell id="jErv5ShqHcsnj3IB_JtX-46" style="edgeStyle=orthogonalEdgeStyle;rounded=0;orthogonalLoop=1;jettySize=auto;html=1;entryX=0.5;entryY=0;entryDx=0;entryDy=0;" parent="1" source="jErv5ShqHcsnj3IB_JtX-44" target="jErv5ShqHcsnj3IB_JtX-12" edge="1">
          <mxGeometry relative="1" as="geometry" />
        </mxCell>
        <mxCell id="jErv5ShqHcsnj3IB_JtX-44" value="遍历封装的封装集合" style="whiteSpace=wrap;html=1;fillColor=#d5e8d4;strokeColor=#82b366;rounded=1;" parent="1" vertex="1">
          <mxGeometry x="620" y="380" width="120" height="60" as="geometry" />
        </mxCell>
        <mxCell id="jErv5ShqHcsnj3IB_JtX-50" value="" style="edgeStyle=orthogonalEdgeStyle;rounded=0;orthogonalLoop=1;jettySize=auto;html=1;" parent="1" source="jErv5ShqHcsnj3IB_JtX-47" target="jErv5ShqHcsnj3IB_JtX-49" edge="1">
          <mxGeometry relative="1" as="geometry" />
        </mxCell>
        <mxCell id="jErv5ShqHcsnj3IB_JtX-47" value="计算结束时间" style="whiteSpace=wrap;html=1;fillColor=#d5e8d4;strokeColor=#82b366;rounded=1;" parent="1" vertex="1">
          <mxGeometry x="620" y="670" width="120" height="60" as="geometry" />
        </mxCell>
        <mxCell id="jErv5ShqHcsnj3IB_JtX-52" value="" style="edgeStyle=orthogonalEdgeStyle;rounded=0;orthogonalLoop=1;jettySize=auto;html=1;" parent="1" source="jErv5ShqHcsnj3IB_JtX-49" edge="1">
          <mxGeometry relative="1" as="geometry">
            <mxPoint x="1070" y="1190" as="targetPoint" />
          </mxGeometry>
        </mxCell>
        <mxCell id="jErv5ShqHcsnj3IB_JtX-53" value="Yes" style="edgeLabel;html=1;align=center;verticalAlign=middle;resizable=0;points=[];" parent="jErv5ShqHcsnj3IB_JtX-52" vertex="1" connectable="0">
          <mxGeometry x="-0.3" y="-1" relative="1" as="geometry">
            <mxPoint as="offset" />
          </mxGeometry>
        </mxCell>
        <mxCell id="jErv5ShqHcsnj3IB_JtX-54" style="edgeStyle=orthogonalEdgeStyle;rounded=0;orthogonalLoop=1;jettySize=auto;html=1;exitX=0.5;exitY=1;exitDx=0;exitDy=0;" parent="1" source="jErv5ShqHcsnj3IB_JtX-49" target="jErv5ShqHcsnj3IB_JtX-16" edge="1">
          <mxGeometry relative="1" as="geometry" />
        </mxCell>
        <mxCell id="jErv5ShqHcsnj3IB_JtX-55" value="No" style="edgeLabel;html=1;align=center;verticalAlign=middle;resizable=0;points=[];" parent="jErv5ShqHcsnj3IB_JtX-54" vertex="1" connectable="0">
          <mxGeometry x="-0.4333" y="-2" relative="1" as="geometry">
            <mxPoint as="offset" />
          </mxGeometry>
        </mxCell>
        <mxCell id="jErv5ShqHcsnj3IB_JtX-49" value="判断是否超时" style="rhombus;whiteSpace=wrap;html=1;fillColor=#d5e8d4;strokeColor=#82b366;rounded=1;" parent="1" vertex="1">
          <mxGeometry x="640" y="760" width="80" height="50" as="geometry" />
        </mxCell>
        <mxCell id="jErv5ShqHcsnj3IB_JtX-58" style="edgeStyle=orthogonalEdgeStyle;rounded=0;orthogonalLoop=1;jettySize=auto;html=1;entryX=0.5;entryY=0;entryDx=0;entryDy=0;" parent="1" source="jErv5ShqHcsnj3IB_JtX-56" target="jErv5ShqHcsnj3IB_JtX-20" edge="1">
          <mxGeometry relative="1" as="geometry" />
        </mxCell>
        <mxCell id="jErv5ShqHcsnj3IB_JtX-59" style="edgeStyle=orthogonalEdgeStyle;rounded=0;orthogonalLoop=1;jettySize=auto;html=1;exitX=1;exitY=0.5;exitDx=0;exitDy=0;" parent="1" source="jErv5ShqHcsnj3IB_JtX-56" edge="1">
          <mxGeometry relative="1" as="geometry">
            <mxPoint x="1050" y="1000" as="targetPoint" />
          </mxGeometry>
        </mxCell>
        <mxCell id="jErv5ShqHcsnj3IB_JtX-60" value="Yes" style="edgeLabel;html=1;align=center;verticalAlign=middle;resizable=0;points=[];" parent="jErv5ShqHcsnj3IB_JtX-59" vertex="1" connectable="0">
          <mxGeometry x="0.0545" y="3" relative="1" as="geometry">
            <mxPoint as="offset" />
          </mxGeometry>
        </mxCell>
        <mxCell id="jErv5ShqHcsnj3IB_JtX-56" value="判断最后时间是否 &amp;lt;= 0" style="rhombus;whiteSpace=wrap;html=1;fillColor=#d5e8d4;strokeColor=#82b366;rounded=1;" parent="1" vertex="1">
          <mxGeometry x="640" y="980" width="80" height="40" as="geometry" />
        </mxCell>
      </root>
    </mxGraphModel>
  </diagram>
</mxfile>
